<?xml version="1.0" ?><svg data-name="Your Icons" id="Your_Icons" viewBox="0 0 48 48" xmlns="http://www.w3.org/2000/svg"><defs><style>.cls-1{fill:#939598;}.cls-2{fill:#8dc63f;}.cls-3{fill:#fff;}</style></defs><title/><path class="cls-1" d="M35,6H11a4.62,4.62,0,0,0-1,.1h0A5,5,0,0,0,6,11a2,2,0,0,0,2,2h6V28.35A5.8,5.8,0,0,1,16,28a6,6,0,1,1-1.2,11.88,3,3,0,0,0,.61.51C16.34,41,16.78,42,18.33,42c2.17,0,2.17-2,4.33-2s2.17,2,4.33,2,2.17-2,4.34-2,2.16,2,4.33,2c1.56,0,2-1,2.93-1.61A3,3,0,0,0,40,37.84V11A5,5,0,0,0,35,6ZM8,11a3,3,0,0,1,2.22-2.9h0l.21,0A3.06,3.06,0,0,1,11,8a3,3,0,0,1,2.12.87,3.1,3.1,0,0,1,.82,1.53A5.8,5.8,0,0,1,14,11ZM38,37.84a1,1,0,0,1-.47.85,7.25,7.25,0,0,0-1.05.84c-.5.45-.54.47-.82.47s-.32,0-.81-.47a4.83,4.83,0,0,0-7,0c-.49.45-.54.47-.81.47s-.31,0-.8-.47A4.91,4.91,0,0,0,22.92,38a8,8,0,0,0,.49-7H35a1,1,0,0,0,0-2H22.46a1.42,1.42,0,0,0-.2,0,8,8,0,0,0-2.4-2H35a1,1,0,0,0,0-2H19a1,1,0,0,0-1,1,.88.88,0,0,0,.06.28A7.82,7.82,0,0,0,16,26V11a7,7,0,0,0-.67-3H35a3,3,0,0,1,3,3Z"/><path class="cls-1" d="M35,12H29a1,1,0,0,0,0,2h6a1,1,0,0,0,0-2Z"/><path class="cls-1" d="M35,16H29a1,1,0,0,0,0,2h6a1,1,0,0,0,0-2Z"/><path class="cls-1" d="M35,20H29a1,1,0,0,0,0,2h6a1,1,0,0,0,0-2Z"/><path class="cls-1" d="M24,12H20a2,2,0,0,0-2,2v6a2,2,0,0,0,2,2h4a2,2,0,0,0,2-2V14A2,2,0,0,0,24,12Zm0,8H20V14h4Z"/><circle class="cls-2" cx="16" cy="34" r="8"/><path class="cls-3" d="M15.38,37.06a1,1,0,0,1-.69-.28L12.81,35a1,1,0,1,1,1.39-1.44l1.18,1.13,2.43-2.33a1,1,0,0,1,1.42,0,1,1,0,0,1,0,1.41l-3.13,3A1,1,0,0,1,15.38,37.06Z"/></svg>